<svg xmlns="http://www.w3.org/2000/svg" width="329.984" height="119.565" viewBox="0 0 329.984 119.565"><path fill="#F57E20" d="M75.31 39.003v-2.908h14.54v2.908H75.31zm36.235 0v-2.908h14.54v2.908h-14.54zm56.938 0v-2.908h14.54v2.908h-14.54zm45.484 0v-2.908h14.54v2.908h-14.54zm45.88 0v-2.908h14.54v2.908h-14.54z"/><path fill="#36323D" d="M116.04 94.535c.297.473.445 1.062.445 1.768s-.117 1.312-.35 1.824c-.233.51-.56.936-.983 1.275-.422.34-.933.592-1.53.756-.6.164-1.258.246-1.976.246-.945 0-1.777-.088-2.495-.266-.717-.176-1.246-.352-1.586-.53l.832-2.21c.14.076.318.158.54.246.22.088.468.17.746.246.277.074.57.14.88.188.308.05.626.076.954.076.77 0 1.357-.13 1.767-.387.41-.258.614-.652.614-1.182 0-.402-.148-.73-.444-.982s-.668-.482-1.115-.69c-.448-.208-.933-.42-1.456-.642s-1.008-.49-1.455-.81c-.448-.323-.82-.724-1.115-1.202-.296-.48-.444-1.09-.444-1.834 0-.643.107-1.2.32-1.672s.52-.865.918-1.182c.397-.314.866-.547 1.408-.7.542-.15 1.146-.226 1.814-.226.77 0 1.493.066 2.174.2.68.13 1.24.323 1.682.575l-.813 2.173c-.276-.178-.692-.338-1.247-.482-.554-.144-1.153-.216-1.795-.216-.604 0-1.068.12-1.39.357-.32.24-.48.563-.48.966 0 .377.147.693.443.945.297.253.668.485 1.116.7.447.215.932.434 1.455.66.524.23 1.01.502 1.457.822.446.324.818.72 1.114 1.193zm15.716-2.693l-.283 1.438h-.095l-.265-1.4-2.418-4.97h-3.08l4.346 8.315v4.914h2.59v-4.933l4.33-8.3h-2.78l-2.344 4.935zm21.88 1.502c-.45-.32-.934-.594-1.457-.822-.524-.227-1.01-.445-1.456-.66-.448-.215-.82-.447-1.115-.7-.297-.25-.445-.567-.445-.944 0-.402.16-.725.482-.965.32-.238.785-.357 1.39-.357.642 0 1.24.072 1.794.217.556.145.97.305 1.25.482l.812-2.174c-.44-.25-1.002-.444-1.682-.575-.68-.133-1.405-.2-2.174-.2-.668 0-1.272.077-1.814.228-.542.152-1.01.385-1.408.7-.397.315-.703.708-.917 1.18s-.32 1.03-.32 1.673c0 .744.147 1.355.443 1.834.296.48.667.88 1.115 1.2.447.32.932.593 1.455.813s1.008.434 1.456.643c.447.207.82.438 1.115.69s.445.58.445.98c0 .53-.205.925-.614 1.183-.41.257-.998.386-1.766.386-.328 0-.646-.025-.955-.076-.31-.05-.603-.113-.88-.188-.277-.076-.526-.158-.747-.246-.22-.088-.4-.17-.54-.246l-.83 2.21c.34.18.87.355 1.586.53.717.178 1.55.266 2.494.266.718 0 1.376-.082 1.975-.246.597-.164 1.107-.416 1.53-.756.422-.34.75-.766.983-1.275.233-.513.35-1.12.35-1.825s-.148-1.295-.444-1.768-.668-.87-1.115-1.193zm11.59-4.13h3.876v10.925h2.59V89.214h3.854v-2.307h-10.32v2.307zm23.886 5.388h4.78v-2.307h-4.78v-3.08h5.254v-2.307h-7.844v13.23h7.938v-2.305h-5.35v-3.23zm23.925-1.682l-.566 1.55h-.075l-.623-1.513-3.535-6.05h-2.362v13.23h2.457V93.26l-.378-2.61h.095l.83 2.1 2.968 4.952h.832l2.815-4.934.812-2.117h.114l-.283 2.63v6.86h2.59V86.91h-2.344l-3.346 6.01zm23.744.424c-.446-.32-.933-.594-1.454-.822-.523-.227-1.01-.445-1.457-.66s-.82-.447-1.116-.7c-.295-.25-.443-.567-.443-.944 0-.402.16-.725.483-.965.32-.238.783-.357 1.39-.357.642 0 1.24.072 1.794.217s.97.305 1.248.482l.812-2.174c-.44-.25-1.002-.444-1.682-.575-.68-.133-1.406-.2-2.174-.2-.667 0-1.272.077-1.813.228-.54.152-1.012.385-1.408.7-.397.315-.704.708-.917 1.18-.215.474-.322 1.03-.322 1.673 0 .744.15 1.355.446 1.834.295.48.668.88 1.115 1.2.448.32.933.593 1.456.813.52.22 1.008.434 1.455.643.448.207.82.438 1.116.69.295.25.443.58.443.98 0 .53-.206.925-.614 1.183-.41.257-1 .386-1.768.386-.328 0-.646-.025-.955-.076-.31-.05-.602-.113-.88-.188-.276-.076-.524-.158-.745-.246s-.4-.17-.54-.246l-.83 2.21c.34.18.87.355 1.587.53.72.178 1.55.266 2.496.266.718 0 1.376-.082 1.976-.246.598-.164 1.11-.416 1.53-.756s.75-.766.983-1.275c.23-.513.35-1.12.35-1.825s-.15-1.295-.444-1.768c-.297-.475-.668-.87-1.115-1.193zM61.034 41.454h-.19c-.087-.327-4.297-22.81-4.297-22.81h-5.233L46.93 41.466h-.17c-.044-.327-2.73-22.824-2.73-22.824h-6.95l6.063 37.85h5.977s4.5-21.725 4.587-22.054h.22l4.71 22.054h6.116l5.83-37.85h-6.66l-2.89 22.81zm86.557-3.988h-.065l-7.566-18.842h-6.08v37.87h6.382V33.822h.192l5.336 15h3.43c.466-1.45 4.913-14.017 5.293-15h.17v22.67h6.382v-37.87h-6.07l-7.405 18.844zm63.005 19.028h-6.48l-1.405-6.796h-8.525l-1.37 6.796h-6.22l8.472-37.87h6.62l8.908 37.87zm-9.077-12.63c-.137-.695-3.09-14.807-3.09-14.807h-.187s-2.79 14.032-2.938 14.807h6.216zm49.405-2.85l5.35 15.48h-6.676l-4.234-13.756h-2.875v13.756h-6.38v-37.87h10.024c5.912 0 8.752 4.02 8.752 12.082 0 4.957-1.36 8.676-3.96 10.31zm-2.254-10.45c0-4.25-.813-6.155-3.376-6.155h-2.807v12.495h2.807c2.688 0 3.375-2.496 3.375-6.34zM109.59 50.647h-5.327V24.458h5.327v-5.835H92.548v5.835h5.336v26.188h-5.336v5.848h17.044v-5.848zm184.92-13.777l6.593-18.247h-6.57l-5.512 15.955h-2.19V18.624h-6.382v37.87h6.382V40.438h2.58l5.684 16.055h6.623l-7.207-19.624z"/></svg>