<svg xmlns="http://www.w3.org/2000/svg" viewBox="0 0 512 512"><path fill="#758892" d="M54.4 134.6h30v256.9h-30z"/><path fill="#475a61" d="M427.6 134.6h30v256.9h-30z"/><path fill="#3b4b51" d="M512 357.2H256l-20 77.9 20 76.9h256z"/><path fill="#475a61" d="M0 357.2h256V512H0z"/><path fill="#00ff8e" d="M53.9 404.1h31v30h-31z"/><path fill="#fff361" d="M115.8 404.1h31v30h-31z"/><path fill="#ff7cba" d="M177.8 404.1h31v30h-31z"/><path fill="#b0ced3" d="M303.3 435.1h154.8v30H303.3z"/><g fill="#a2d7fd"><path d="M318.1 171.4a87.6 87.6 0 0 0-62.1-25.7L246 162l10 13.6c14.8 0 29.6 5.7 41 17l21.1-21.2zM369.7 119.8a160.2 160.2 0 0 0-113.7-47l-10 16.7 10 13.3c33.5 0 67 12.8 92.4 38.2l21.3-21.2zM421.2 68.3A232 232 0 0 0 256 0l-10 15.3L256 30a203 203 0 0 1 144 59.5l21.2-21.2z"/></g><g fill="#cce7fd"><path d="M193.9 171.4l21.2 21.2a57.7 57.7 0 0 1 40.9-17v-30c-22.5 0-45 8.6-62.1 25.8zM142.3 119.8l21.3 21.2c25.4-25.4 59-38.2 92.4-38.2v-30c-41.2 0-82.3 15.7-113.7 47zM90.8 68.3L112 89.5A203 203 0 0 1 256 30V0A232 232 0 0 0 90.8 68.3z"/></g></svg>